<!--?xml version="1.0" encoding="utf-8"?-->
<!-- Generator: Adobe Illustrator 18.1.1, SVG Export Plug-In . SVG Version: 6.00 Build 0)  -->

<svg version="1.1" id="_x32_" xmlns="http://www.w3.org/2000/svg" xmlns:xlink="http://www.w3.org/1999/xlink" x="0px" y="0px" viewBox="0 0 512 512" style="width: 256px; height: 256px; opacity: 1;" xml:space="preserve">
<style type="text/css">
	.st0{fill:#4B4B4B;}
</style>
<g>
	<path class="st0" d="M279.541,75.648V59.485c6.68-6.278,10.88-15.171,10.88-25.07C290.421,15.403,275.011,0,256,0
		c-19.01,0-34.421,15.403-34.421,34.414c0,9.893,4.193,18.785,10.879,25.063v16.171l-125.923,42.982v38.754h24.627l15.354,153.932
		h-7.046v43.32c0,1.297,1.057,2.354,2.354,2.354h26.254v19.786c0,1.304,1.05,2.36,2.354,2.36h59.272v66.432h-28.093
		c-1.304,0-2.354,1.05-2.354,2.353v22.555h-29.482c-1.296,0-2.353,1.057-2.353,2.354V512h177.156v-39.17
		c0-1.296-1.057-2.354-2.354-2.354h-29.481v-22.555c0-1.303-1.057-2.353-2.354-2.353h-28.093v-66.432h59.273
		c1.304,0,2.354-1.056,2.354-2.36V356.99h26.247c1.303,0,2.354-1.057,2.354-2.354v-43.32h-7.039l15.353-153.932h24.627v-38.754
		L279.541,75.648z M236.017,311.316h-55.073L165.59,157.384h70.427V311.316z M331.057,311.316h-55.073V157.384h70.427
		L331.057,311.316z" style="fill: rgb(75, 75, 75);"></path>
</g>
</svg>
